# xmcd CD database file
#
# Track frame offsets:
#	150
#	13491
#	32885
#	47098
#	63939
#	77060
#	93844
#	112696
#	123207
#	133559
#
# Disc length: 2058 seconds
#
# Revision: 0
# Processed by: cddbd v1.4PL0 Copyright (c) Steve Scherf et al.
# Submitted via: CDex 1.50Beta7
#
DISCID=7808080a
DTITLE=VARIOS - PERVERSIONES FLAMENCAS
DYEAR=2000
DGENRE=Blues
TTITLE0=ESTOPA son ilusiones
TTITLE1=ALBA HEREDIA rayando el sol
TTITLE2=TOMASITO agradecido
TTITLE3=DEOJANANA nada de nada
TTITLE4=LOS ACTIVOS jingo
TTITLE5=LEVANTITO suavemente me matas
TTITLE6=ARREBATO tu y yo
TTITLE7=EL PESCAILLA extraños en la noche
TTITLE8=EL POLLITO DE CALIFORNIA no es nada extraño
TTITLE9=ALBERT PLA el lado mas bestia de la vida
EXTD=YEAR: 2000
EXTT0=
EXTT1=
EXTT2=
EXTT3=
EXTT4=
EXTT5=
EXTT6=
EXTT7=
EXTT8=
EXTT9=
PLAYORDER=
